<?xml version="1.0" encoding="utf-8"?>
<!-- Generator: Adobe Illustrator 22.1.0, SVG Export Plug-In . SVG Version: 6.00 Build 0)  -->
<svg version="1.1" id="Layer_1" xmlns="http://www.w3.org/2000/svg" xmlns:xlink="http://www.w3.org/1999/xlink" x="0px" y="0px"
	 viewBox="0 0 700 420" style="enable-background:new 0 0 700 420;" xml:space="preserve">
<style type="text/css">
	.st0{clip-path:url(#SVGID_2_);}
	.st1{opacity:0.77;}
	.st2{fill:#FBF9F7;}
	.st3{fill:#F9FAFB;}
	.st4{fill:#F4F4F2;}
	.st5{fill:#F9F6F1;}
	.st6{fill:#FFFBF9;}
	.st7{fill:#FFFFF9;}
	.st8{fill:#F9F6F4;}
	.st9{fill:#F6F4F1;}
	.st10{fill:#FFFBF6;}
	.st11{fill:#EFECE7;}
	.st12{fill:#F9F6EF;}
	.st13{fill:#FFFFFF;}
	.st14{fill:#F9FAF5;}
	.st15{fill:#F7F5F0;}
	.st16{fill:#F9F4F2;}
	.st17{fill:#F5F4EC;}
	.st18{fill:#FBF9F4;}
	.st19{fill:#F4F1EC;}
	.st20{fill:#ECEAE4;}
	.st21{fill:#F2F0EB;}
	.st22{fill:#F4F4EF;}
	.st23{fill:#E9E7E2;}
	.st24{fill:#F2F0ED;}
	.st25{fill:#EFECE9;}
	.st26{fill:#ECE6E4;}
	.st27{fill:#F1ECEA;}
	.st28{fill:#E7E2DF;}
	.st29{fill:#F0F0ED;}
	.st30{fill:#FFFFFC;}
	.st31{fill:#FBFCF8;}
	.st32{fill:#E4E4E2;}
	.st33{fill:#F1F1EC;}
	.st34{fill:#E2DFDA;}
	.st35{fill:#EAE4E2;}
	.st36{fill:#F4EFEC;}
	.st37{fill:#D7282F;}
</style>
<title>about-fpo</title>
<g>
	<defs>
		<rect id="SVGID_1_" x="-166.2" y="-73" width="984" height="580.6"/>
	</defs>
	<clipPath id="SVGID_2_">
		<use xlink:href="#SVGID_1_"  style="overflow:visible;"/>
	</clipPath>
	<g class="st0">
		<g class="st1">
			<polygon class="st2" points="322.3,-1.7 377.7,33.9 322.3,69.6 322.3,-1.7 			"/>
			<polygon class="st3" points="654.5,-1.7 709.8,33.9 654.5,69.6 654.5,-1.7 			"/>
			<polygon class="st4" points="543.7,-1.7 599.1,33.9 543.7,69.6 543.7,-1.7 			"/>
			<polygon class="st5" points="433,-1.7 488.4,33.9 433,69.6 433,-1.7 			"/>
			<polygon class="st6" points="211.6,-1.7 267,33.9 211.6,69.6 211.6,-1.7 			"/>
			<polygon class="st4" points="100.9,-1.7 156.3,33.9 100.9,69.6 100.9,-1.7 			"/>
			<polygon class="st3" points="-9.8,-1.7 45.5,33.9 -9.8,69.6 -9.8,-1.7 			"/>
			<polygon class="st7" points="654.5,-1.7 599.1,33.9 654.5,69.6 654.5,-1.7 			"/>
			<polygon class="st3" points="543.7,-1.7 488.4,33.9 543.7,69.6 543.7,-1.7 			"/>
			<polygon class="st8" points="433,-1.7 377.7,33.9 433,69.6 433,-1.7 			"/>
			<polygon class="st7" points="322.3,-1.7 267,33.9 322.3,69.6 322.3,-1.7 			"/>
			<polygon class="st8" points="211.6,-1.7 156.3,33.9 211.6,69.6 211.6,-1.7 			"/>
			<polygon class="st6" points="100.9,-1.7 45.5,33.9 100.9,69.6 100.9,-1.7 			"/>
			<polygon class="st9" points="654.5,69.6 709.8,105.2 654.5,140.8 654.5,69.6 			"/>
			<polygon class="st8" points="543.7,69.6 599.1,105.2 543.7,140.8 543.7,69.6 			"/>
			<polygon class="st2" points="433,69.6 488.4,105.2 433,140.8 433,69.6 			"/>
			<polygon class="st6" points="322.3,69.6 377.7,105.2 322.3,140.8 322.3,69.6 			"/>
			<polygon class="st6" points="211.6,69.6 267,105.2 211.6,140.8 211.6,69.6 			"/>
			<polygon class="st10" points="100.9,69.6 156.3,105.2 100.9,140.8 100.9,69.6 			"/>
			<polygon class="st4" points="-9.8,69.6 45.5,105.2 -9.8,140.8 -9.8,69.6 			"/>
			<polygon class="st11" points="654.5,69.6 599.1,105.2 654.5,140.8 654.5,69.6 			"/>
			<polygon class="st12" points="543.7,69.6 488.4,105.2 543.7,140.8 543.7,69.6 			"/>
			<polygon class="st13" points="433,69.6 377.7,105.2 433,140.8 433,69.6 			"/>
			<polygon class="st14" points="322.3,69.6 267,105.2 322.3,140.8 322.3,69.6 			"/>
			<polygon class="st15" points="211.6,69.6 156.3,105.2 211.6,140.8 211.6,69.6 			"/>
			<polygon class="st16" points="100.9,69.6 45.5,105.2 100.9,140.8 100.9,69.6 			"/>
			<polygon class="st9" points="654.5,140.8 709.8,176.5 654.5,212.1 654.5,140.8 			"/>
			<polygon class="st17" points="543.7,140.8 599.1,176.5 543.7,212.1 543.7,140.8 			"/>
			<polygon class="st2" points="433,140.8 488.4,176.5 433,212.1 433,140.8 			"/>
			<polygon class="st3" points="322.3,140.8 377.7,176.5 322.3,212.1 322.3,140.8 			"/>
			<polygon class="st10" points="211.6,140.8 267,176.5 211.6,212.1 211.6,140.8 			"/>
			<polygon class="st2" points="100.9,140.8 156.3,176.5 100.9,212.1 100.9,140.8 			"/>
			<polygon class="st15" points="-9.8,140.8 45.5,176.5 -9.8,212.1 -9.8,140.8 			"/>
			<polygon class="st10" points="654.5,140.8 599.1,176.5 654.5,212.1 654.5,140.8 			"/>
			<polygon class="st18" points="543.7,140.8 488.4,176.5 543.7,212.1 543.7,140.8 			"/>
			<polygon class="st15" points="433,140.8 377.7,176.5 433,212.1 433,140.8 			"/>
			<polygon class="st4" points="322.3,140.8 267,176.5 322.3,212.1 322.3,140.8 			"/>
			<polygon class="st19" points="211.6,140.8 156.3,176.5 211.6,212.1 211.6,140.8 			"/>
			<polygon class="st15" points="100.9,140.8 45.5,176.5 100.9,212.1 100.9,140.8 			"/>
			<polygon class="st20" points="654.5,212.1 709.8,247.8 654.5,283.4 654.5,212.1 			"/>
			<polygon class="st19" points="543.7,212.1 599.1,247.8 543.7,283.4 543.7,212.1 			"/>
			<polygon class="st15" points="433,212.1 488.4,247.8 433,283.4 433,212.1 			"/>
			<polygon class="st2" points="322.3,212.1 377.7,247.8 322.3,283.4 322.3,212.1 			"/>
			<polygon class="st11" points="211.6,212.1 267,247.8 211.6,283.4 211.6,212.1 			"/>
			<polygon class="st19" points="100.9,212.1 156.3,247.8 100.9,283.4 100.9,212.1 			"/>
			<polygon class="st11" points="-9.8,212.1 45.5,247.8 -9.8,283.4 -9.8,212.1 			"/>
			<polygon class="st15" points="654.5,212.1 599.1,247.8 654.5,283.4 654.5,212.1 			"/>
			<polygon class="st21" points="543.7,212.1 488.4,247.8 543.7,283.4 543.7,212.1 			"/>
			<polygon class="st2" points="433,212.1 377.7,247.8 433,283.4 433,212.1 			"/>
			<polygon class="st12" points="322.3,212.1 267,247.8 322.3,283.4 322.3,212.1 			"/>
			<polygon class="st19" points="211.6,212.1 156.3,247.8 211.6,283.4 211.6,212.1 			"/>
			<polygon class="st16" points="100.9,212.1 45.5,247.8 100.9,283.4 100.9,212.1 			"/>
			<polygon class="st22" points="322.3,283.4 377.7,319 322.3,354.7 322.3,283.4 			"/>
			<polygon class="st19" points="654.5,283.4 709.8,319 654.5,354.7 654.5,283.4 			"/>
			<polygon class="st15" points="543.7,283.4 599.1,319 543.7,354.7 543.7,283.4 			"/>
			<polygon class="st21" points="433,283.4 488.4,319 433,354.7 433,283.4 			"/>
			<polygon class="st15" points="211.6,283.4 267,319 211.6,354.7 211.6,283.4 			"/>
			<polygon class="st11" points="100.9,283.4 156.3,319 100.9,354.7 100.9,283.4 			"/>
			<polygon class="st23" points="-9.8,283.4 45.5,319 -9.8,354.7 -9.8,283.4 			"/>
			<polygon class="st24" points="654.5,283.4 599.1,319 654.5,354.7 654.5,283.4 			"/>
			<polygon class="st18" points="543.7,283.4 488.4,319 543.7,354.7 543.7,283.4 			"/>
			<polygon class="st16" points="433,283.4 377.7,319 433,354.7 433,283.4 			"/>
			<polygon class="st25" points="322.3,426 267,390.3 322.3,354.7 322.3,426 			"/>
			<polygon class="st19" points="211.6,283.4 156.3,319 211.6,354.7 211.6,283.4 			"/>
			<polygon class="st23" points="100.9,283.4 45.5,319 100.9,354.7 100.9,283.4 			"/>
			<polygon class="st11" points="322.3,354.7 377.7,390.3 322.3,426 322.3,354.7 			"/>
			<polygon class="st23" points="654.5,354.7 709.8,390.3 654.5,426 654.5,354.7 			"/>
			<polygon class="st23" points="543.7,354.7 599.1,390.3 543.7,426 543.7,354.7 			"/>
			<polygon class="st9" points="433,354.7 488.4,390.3 433,426 433,354.7 			"/>
			<polygon class="st15" points="211.6,354.7 267,390.3 211.6,426 211.6,354.7 			"/>
			<polygon class="st11" points="100.9,354.7 156.3,390.3 100.9,426 100.9,354.7 			"/>
			<polygon class="st26" points="-9.8,354.7 45.5,390.3 -9.8,426 -9.8,354.7 			"/>
			<polygon class="st24" points="433,354.7 377.7,390.3 433,426 433,354.7 			"/>
			<polygon class="st23" points="654.5,354.7 599.1,390.3 654.5,426 654.5,354.7 			"/>
			<polygon class="st22" points="543.7,354.7 488.4,390.3 543.7,426 543.7,354.7 			"/>
			<polygon class="st9" points="322.3,354.7 267,319 322.3,283.4 322.3,354.7 			"/>
			<polygon class="st27" points="211.6,354.7 156.3,390.3 211.6,426 211.6,354.7 			"/>
			<polygon class="st28" points="100.9,354.7 45.5,390.3 100.9,426 100.9,354.7 			"/>
			<polygon class="st19" points="377.7,-37.4 322.3,-1.7 377.7,33.9 377.7,-37.4 			"/>
			<polygon class="st7" points="709.8,-37.4 654.5,-1.7 709.8,33.9 709.8,-37.4 			"/>
			<polygon class="st2" points="599.1,-37.4 543.7,-1.7 599.1,33.9 599.1,-37.4 			"/>
			<polygon class="st29" points="488.4,-37.4 433,-1.7 488.4,33.9 488.4,-37.4 			"/>
			<polygon class="st24" points="267,-37.4 211.6,-1.7 267,33.9 267,-37.4 			"/>
			<polygon class="st14" points="156.3,-37.4 100.9,-1.7 156.3,33.9 156.3,-37.4 			"/>
			<polygon class="st30" points="45.5,-37.4 -9.8,-1.7 45.5,33.9 45.5,-37.4 			"/>
			<polygon class="st22" points="599.1,-37.4 654.5,-1.7 599.1,33.9 599.1,-37.4 			"/>
			<polygon class="st31" points="488.4,-37.4 543.7,-1.7 488.4,33.9 488.4,-37.4 			"/>
			<polygon class="st32" points="377.7,-37.4 433,-1.7 377.7,33.9 377.7,-37.4 			"/>
			<polygon class="st8" points="267,-37.4 322.3,-1.7 267,33.9 267,-37.4 			"/>
			<polygon class="st9" points="156.3,-37.4 211.6,-1.7 156.3,33.9 156.3,-37.4 			"/>
			<polygon class="st13" points="45.5,-37.4 100.9,-1.7 45.5,33.9 45.5,-37.4 			"/>
			<polygon class="st8" points="377.7,33.9 322.3,69.6 377.7,105.2 377.7,33.9 			"/>
			<polygon class="st2" points="709.8,33.9 654.5,69.6 709.8,105.2 709.8,33.9 			"/>
			<polygon class="st22" points="599.1,33.9 543.7,69.6 599.1,105.2 599.1,33.9 			"/>
			<polygon class="st7" points="488.4,33.9 433,69.6 488.4,105.2 488.4,33.9 			"/>
			<polygon class="st7" points="267,33.9 211.6,69.6 267,105.2 267,33.9 			"/>
			<polygon class="st31" points="156.3,33.9 100.9,69.6 156.3,105.2 156.3,33.9 			"/>
			<polygon class="st30" points="45.5,33.9 -9.8,69.6 45.5,105.2 45.5,33.9 			"/>
			<polygon class="st17" points="599.1,33.9 654.5,69.6 599.1,105.2 599.1,33.9 			"/>
			<polygon class="st7" points="488.4,33.9 543.7,69.6 488.4,105.2 488.4,33.9 			"/>
			<polygon class="st4" points="377.7,33.9 433,69.6 377.7,105.2 377.7,33.9 			"/>
			<polygon class="st15" points="267,33.9 322.3,69.6 267,105.2 267,33.9 			"/>
			<polygon class="st18" points="156.3,33.9 211.6,69.6 156.3,105.2 156.3,33.9 			"/>
			<polygon class="st2" points="45.5,33.9 100.9,69.6 45.5,105.2 45.5,33.9 			"/>
			<polygon class="st6" points="709.8,105.2 654.5,140.8 709.8,176.5 709.8,105.2 			"/>
			<polygon class="st6" points="599.1,105.2 543.7,140.8 599.1,176.5 599.1,105.2 			"/>
			<polygon class="st30" points="488.4,105.2 433,140.8 488.4,176.5 488.4,105.2 			"/>
			<polygon class="st7" points="377.7,105.2 322.3,140.8 377.7,176.5 377.7,105.2 			"/>
			<polygon class="st12" points="267,105.2 211.6,140.8 267,176.5 267,105.2 			"/>
			<polygon class="st15" points="156.3,105.2 100.9,140.8 156.3,176.5 156.3,105.2 			"/>
			<polygon class="st6" points="45.5,105.2 -9.8,140.8 45.5,176.5 45.5,105.2 			"/>
			<polygon class="st11" points="599.1,105.2 654.5,140.8 599.1,176.5 599.1,105.2 			"/>
			<polygon class="st2" points="488.4,105.2 543.7,140.8 488.4,176.5 488.4,105.2 			"/>
			<polygon class="st6" points="377.7,105.2 433,140.8 377.7,176.5 377.7,105.2 			"/>
			<polygon class="st6" points="267,105.2 322.3,140.8 267,176.5 267,105.2 			"/>
			<polygon class="st18" points="156.3,105.2 211.6,140.8 156.3,176.5 156.3,105.2 			"/>
			<polygon class="st8" points="45.5,105.2 100.9,140.8 45.5,176.5 45.5,105.2 			"/>
			<polygon class="st19" points="709.8,176.5 654.5,212.1 709.8,247.8 709.8,176.5 			"/>
			<polygon class="st20" points="599.1,176.5 543.7,212.1 599.1,247.8 599.1,176.5 			"/>
			<polygon class="st12" points="488.4,176.5 433,212.1 488.4,247.8 488.4,176.5 			"/>
			<polygon class="st6" points="377.7,176.5 322.3,212.1 377.7,247.8 377.7,176.5 			"/>
			<polygon class="st8" points="267,176.5 211.6,212.1 267,247.8 267,176.5 			"/>
			<polygon class="st19" points="156.3,176.5 100.9,212.1 156.3,247.8 156.3,176.5 			"/>
			<polygon class="st11" points="45.5,176.5 -9.8,212.1 45.5,247.8 45.5,176.5 			"/>
			<polygon class="st24" points="599.1,176.5 654.5,212.1 599.1,247.8 599.1,176.5 			"/>
			<polygon class="st33" points="488.4,176.5 543.7,212.1 488.4,247.8 488.4,176.5 			"/>
			<polygon class="st6" points="377.7,176.5 433,212.1 377.7,247.8 377.7,176.5 			"/>
			<polygon class="st18" points="267,176.5 322.3,212.1 267,247.8 267,176.5 			"/>
			<polygon class="st8" points="156.3,176.5 211.6,212.1 156.3,247.8 156.3,176.5 			"/>
			<polygon class="st8" points="45.5,176.5 100.9,212.1 45.5,247.8 45.5,176.5 			"/>
			<polygon class="st18" points="709.8,247.8 654.5,283.4 709.8,319 709.8,247.8 			"/>
			<polygon class="st21" points="599.1,247.8 543.7,283.4 599.1,319 599.1,247.8 			"/>
			<polygon class="st11" points="488.4,247.8 433,283.4 488.4,319 488.4,247.8 			"/>
			<polygon class="st6" points="377.7,247.8 322.3,283.4 377.7,319 377.7,247.8 			"/>
			<polygon class="st8" points="267,247.8 211.6,283.4 267,319 267,247.8 			"/>
			<polygon class="st15" points="156.3,247.8 100.9,283.4 156.3,319 156.3,247.8 			"/>
			<polygon class="st23" points="45.5,247.8 -9.8,283.4 45.5,319 45.5,247.8 			"/>
			<polygon class="st20" points="599.1,247.8 654.5,283.4 599.1,319 599.1,247.8 			"/>
			<polygon class="st24" points="488.4,247.8 543.7,283.4 488.4,319 488.4,247.8 			"/>
			<polygon class="st19" points="377.7,247.8 433,283.4 377.7,319 377.7,247.8 			"/>
			<polygon class="st2" points="267,247.8 322.3,283.4 267,319 267,247.8 			"/>
			<polygon class="st15" points="156.3,247.8 211.6,283.4 156.3,319 156.3,247.8 			"/>
			<polygon class="st11" points="45.5,247.8 100.9,283.4 45.5,319 45.5,247.8 			"/>
			<polygon class="st34" points="377.7,319 322.3,354.7 377.7,390.3 377.7,319 			"/>
			<polygon class="st35" points="709.8,319 654.5,354.7 709.8,390.3 709.8,319 			"/>
			<polygon class="st23" points="599.1,319 543.7,354.7 599.1,390.3 599.1,319 			"/>
			<polygon class="st11" points="488.4,319 433,354.7 488.4,390.3 488.4,319 			"/>
			<polygon class="st18" points="267,319 211.6,354.7 267,390.3 267,319 			"/>
			<polygon class="st11" points="156.3,319 100.9,354.7 156.3,390.3 156.3,319 			"/>
			<polygon class="st23" points="45.5,319 -9.8,354.7 45.5,390.3 45.5,319 			"/>
			<polygon class="st20" points="377.7,319 433,354.7 377.7,390.3 377.7,319 			"/>
			<polygon class="st17" points="488.4,319 543.7,354.7 488.4,390.3 488.4,319 			"/>
			<polygon class="st24" points="599.1,319 654.5,354.7 599.1,390.3 599.1,319 			"/>
			<polygon class="st11" points="267,319 322.3,354.7 267,390.3 267,319 			"/>
			<polygon class="st36" points="156.3,319 211.6,354.7 156.3,390.3 156.3,319 			"/>
			<polygon class="st35" points="45.5,319 100.9,354.7 45.5,390.3 45.5,319 			"/>
			<polygon class="st22" points="709.8,390.3 654.5,426 709.8,461.6 709.8,390.3 			"/>
			<polygon class="st11" points="599.1,390.3 543.7,426 599.1,461.6 599.1,390.3 			"/>
			<polygon class="st20" points="488.4,390.3 433,426 488.4,461.6 488.4,390.3 			"/>
			<polygon class="st15" points="377.7,390.3 322.3,426 377.7,461.6 377.7,390.3 			"/>
			<polygon class="st11" points="267,390.3 211.6,426 267,461.6 267,390.3 			"/>
			<polygon class="st23" points="156.3,390.3 100.9,426 156.3,461.6 156.3,390.3 			"/>
			<polygon class="st11" points="45.5,390.3 -9.8,426 45.5,461.6 45.5,390.3 			"/>
			<polygon class="st11" points="599.1,390.3 654.5,426 599.1,461.6 599.1,390.3 			"/>
			<polygon class="st8" points="488.4,390.3 543.7,426 488.4,461.6 488.4,390.3 			"/>
			<polygon class="st11" points="377.7,390.3 433,426 377.7,461.6 377.7,390.3 			"/>
			<polygon class="st11" points="267,390.3 322.3,426 267,461.6 267,390.3 			"/>
			<polygon class="st35" points="156.3,390.3 211.6,426 156.3,461.6 156.3,390.3 			"/>
			<polygon class="st11" points="45.5,390.3 100.9,426 45.5,461.6 45.5,390.3 			"/>
		</g>
	</g>
</g>
<path class="st13" d="M393.9,238.4c0,4.6-3.7,8.3-8.3,8.3s-8.3-3.7-8.3-8.3s3.7-8.3,8.3-8.3l0,0
	C390.2,230.1,393.9,233.8,393.9,238.4z"/>
<g>
	<g>
		<circle class="st37" cx="350" cy="210" r="80.9"/>
	</g>
	<g>
		<path class="st13" d="M374.8,234.1c-1.3,2.6-3,4.8-5.2,6.6c-2.2,1.8-4.8,3.1-7.8,4c-3,0.9-6.1,1.3-9.5,1.3
			c-4.8,0-8.9-0.7-12.2-2.2c-3.4-1.5-6.1-3.3-8.2-5.5c-2.1-2.1-3.6-4.4-4.6-6.8c-1-2.4-1.5-4.4-1.5-6.2c0-2.1,0.5-3.6,1.5-4.5
			c1-0.9,2-1.3,3.1-1.3c0.9,0,1.8,0.3,2.5,0.9c0.8,0.6,1.2,1.6,1.4,3c0.3,2.2,1,4.2,2.1,5.9c1.1,1.7,2.5,3.1,4.1,4.3
			c1.6,1.1,3.4,2,5.4,2.6c2,0.6,4,0.9,6.1,0.9c1.7,0,3.4-0.2,5.2-0.7c1.8-0.4,3.4-1.1,4.9-2c1.5-0.9,2.7-2.1,3.6-3.6
			c0.9-1.5,1.4-3.2,1.4-5.3c0-2.2-0.6-4.1-1.7-5.6c-1.1-1.5-2.6-2.7-4.4-3.7c-1.8-1-3.9-1.8-6.2-2.5c-2.3-0.7-4.7-1.4-7.1-2.1
			c-2.4-0.7-4.8-1.5-7.1-2.4c-2.3-0.9-4.4-2.1-6.2-3.5c-1.8-1.4-3.3-3.2-4.4-5.3c-1.1-2.1-1.7-4.7-1.7-7.8c0-2.9,0.6-5.6,1.7-7.8
			c1.2-2.3,2.8-4.2,4.8-5.8c2-1.6,4.5-2.8,7.3-3.6c2.8-0.8,5.9-1.2,9.2-1.2c3.2,0,6.2,0.4,8.9,1.3c2.7,0.9,5.1,2.1,7,3.5
			c2,1.5,3.5,3.1,4.6,4.9c1.1,1.8,1.6,3.6,1.6,5.5c0,1.5-0.5,2.7-1.4,3.7c-0.9,0.9-2,1.4-3.1,1.4c-0.8,0-1.6-0.2-2.3-0.7
			c-0.7-0.5-1.3-1.3-1.7-2.4c-0.6-1.8-1.5-3.2-2.5-4.3c-1.1-1.1-2.2-1.9-3.5-2.6c-1.3-0.6-2.6-1-4-1.2c-1.4-0.2-2.7-0.3-4-0.3
			c-1.9,0-3.7,0.2-5.4,0.7c-1.6,0.4-3.1,1.1-4.3,1.9s-2.2,1.8-2.8,2.9c-0.7,1.1-1,2.5-1,3.9c0,2,0.6,3.6,1.7,4.9
			c1.1,1.3,2.6,2.4,4.4,3.3c1.8,0.9,3.9,1.6,6.2,2.3c2.3,0.6,4.7,1.3,7.2,2c2.5,0.7,4.8,1.5,7.2,2.5c2.3,1,4.4,2.2,6.2,3.7
			c1.8,1.5,3.3,3.4,4.4,5.6c1.1,2.2,1.7,5,1.7,8.2C376.7,228.3,376.1,231.4,374.8,234.1z"/>
	</g>
</g>
</svg>
