<?xml version="1.0" encoding="utf-8"?>
<!-- Generator: Adobe Illustrator 22.1.0, SVG Export Plug-In . SVG Version: 6.00 Build 0)  -->
<svg version="1.1" id="Layer_1" xmlns="http://www.w3.org/2000/svg" xmlns:xlink="http://www.w3.org/1999/xlink" x="0px" y="0px"
	 viewBox="0 0 24 24" style="enable-background:new 0 0 24 24;" xml:space="preserve">
<style type="text/css">
	.st0{fill:#91D7EC;}
</style>
<path class="st0" d="M16.2,9.2l-1.4-1.4L12,10.6L9.2,7.8L7.8,9.2l2.8,2.8l-2.8,2.8l1.4,1.4l2.8-2.8l2.8,2.8l1.4-1.4L13.4,12
	L16.2,9.2z M22,12c0-5.5-4.5-10-10-10S2,6.5,2,12s4.5,10,10,10S22,17.5,22,12z M4,12c0-4.4,3.6-8,8-8s8,3.6,8,8s-3.6,8-8,8
	S4,16.4,4,12z"/>
</svg>
