<svg id="Layer_1" data-name="Layer 1" xmlns="http://www.w3.org/2000/svg" viewBox="0 0 24 24"><defs><style>.cls-1{fill:none;}</style></defs><title>ic_settings</title><path class="cls-1" d="M0,0H24V24H0Z"/><path d="M19.05,13.1a7.79,7.79,0,0,0,.07-1,7.79,7.79,0,0,0-.07-1l2.11-1.65a.5.5,0,0,0,.12-.64l-2-3.46a.5.5,0,0,0-.61-.22l-2.49,1a7.31,7.31,0,0,0-1.69-1l-.38-2.65a.49.49,0,0,0-.49-.42h-4a.49.49,0,0,0-.49.42L8.75,5.19a7.68,7.68,0,0,0-1.69,1l-2.49-1A.49.49,0,0,0,4,5.39L2,8.85a.49.49,0,0,0,.12.64l2.11,1.65a7.93,7.93,0,0,0-.07,1,7.93,7.93,0,0,0,.07,1L2.08,14.75a.5.5,0,0,0-.12.64l2,3.46a.5.5,0,0,0,.61.22l2.49-1a7.31,7.31,0,0,0,1.69,1l.38,2.65a.49.49,0,0,0,.49.42h4a.49.49,0,0,0,.49-.42l.38-2.65a7.68,7.68,0,0,0,1.69-1l2.49,1a.49.49,0,0,0,.61-.22l2-3.46a.5.5,0,0,0-.12-.64Zm-7.43,2.52a3.5,3.5,0,1,1,3.5-3.5A3.5,3.5,0,0,1,11.62,15.62Z"/></svg>