<svg id="Layer_1" data-name="Layer 1" xmlns="http://www.w3.org/2000/svg" viewBox="0 0 243.4 243.4"><defs><style>.cls-1{fill:#4f4f51;}.cls-2,.cls-3{fill:none;stroke:#4f4f51;}.cls-2{stroke-width:1.45px;}.cls-3{stroke-width:5.72px;}</style></defs><title>icon-tesira</title><path class="cls-1" d="M119.17,85H91.9a10.41,10.41,0,0,1-7.71-3.26,11.19,11.19,0,0,1,0-15.5A10.42,10.42,0,0,1,91.9,63h76.29a10.32,10.32,0,0,1,7.62,3.27,11.19,11.19,0,0,1,0,15.5A10.31,10.31,0,0,1,168.19,85H140.83V186a10.79,10.79,0,0,1-3.21,7.84,10.74,10.74,0,0,1-15.24,0,10.79,10.79,0,0,1-3.21-7.84Z" transform="translate(-8.3 -8.3)"/><path class="cls-2" d="M119.17,85H91.9a10.41,10.41,0,0,1-7.71-3.26,11.19,11.19,0,0,1,0-15.5A10.42,10.42,0,0,1,91.9,63h76.29a10.32,10.32,0,0,1,7.62,3.27,11.19,11.19,0,0,1,0,15.5A10.31,10.31,0,0,1,168.19,85H140.83V186a10.79,10.79,0,0,1-3.21,7.84,10.74,10.74,0,0,1-15.24,0,10.79,10.79,0,0,1-3.21-7.84Z" transform="translate(-8.3 -8.3)"/><circle class="cls-3" cx="130" cy="130" r="118.84" transform="translate(-34.29 24.41) rotate(-13.05)"/></svg>