<svg id="Layer_1" data-name="Layer 1" xmlns="http://www.w3.org/2000/svg" viewBox="0 0 255.41 255.41"><defs><style>.cls-1,.cls-3{fill:none;stroke:#4f4f51;}.cls-1{stroke-width:5.41px;}.cls-2{fill:#4f4f51;}.cls-3{stroke-width:7.51px;}</style></defs><title>icon-devio</title><circle class="cls-1" cx="127.7" cy="127.7" r="125"/><path class="cls-2" d="M182.52,149c0,30.75-23.6,55.32-52.62,55.32S77.48,179.52,77.48,149s23.6-55.33,52.42-55.33c17.8,0,34.63,11.42,41.59,24.37V55.72h11Zm-94.4,0c0,24.56,18.76,44.68,41.78,44.68,23.41,0,42-20.89,42-44.68,0-24.57-19-44.69-42-44.69S88.12,124.39,88.12,149" transform="translate(-2.3 -2.3)"/><path class="cls-3" d="M182.52,149c0,30.75-23.6,55.32-52.62,55.32S77.48,179.52,77.48,149s23.6-55.33,52.42-55.33c17.8,0,34.63,11.42,41.59,24.37V55.72h11Zm-94.4,0c0,24.56,18.76,44.68,41.78,44.68,23.41,0,42-20.89,42-44.68,0-24.57-19-44.69-42-44.69S88.12,124.39,88.12,149Z" transform="translate(-2.3 -2.3)"/></svg>