<svg id="Layer_1" data-name="Layer 1" xmlns="http://www.w3.org/2000/svg" viewBox="0 0 506.84 172.65"><defs><style>.cls-1{fill:#d9272d;}.cls-2{fill:#231f20;}.cls-3{fill:none;}</style></defs><title>logo_biamp</title><circle class="cls-1" cx="493.78" cy="120.32" r="8.61"/><path class="cls-2" d="M95.78,86.11c0,24.09-18.12,42.71-40.67,42.71a41.87,41.87,0,0,1-23.24-6.48v4.78H8.12V19.29L31.87,5.8V50.05a41.79,41.79,0,0,1,23.24-6.49C77.66,43.56,95.78,62.36,95.78,86.11Zm-23.41,0c0-12-8.89-22.39-21.19-22.39-7,0-14,2.4-19.31,9.4V99.26c5.3,7.18,12.31,9.58,19.31,9.58C63.48,108.84,72.37,98.24,72.37,86.11Z"/><path class="cls-2" d="M133.22,45.27v81.85H109.47V45.27Z"/><path class="cls-2" d="M234.21,45.27v81.85H210.46v-4.78a41.87,41.87,0,0,1-23.24,6.48c-22.56,0-40.84-18.79-40.84-42.54,0-24.09,18.28-42.72,40.84-42.72a41.79,41.79,0,0,1,23.24,6.49V45.27Zm-23.75,54V73.12c-5.3-7.17-12.3-9.57-19.31-9.57-12.47,0-21.19,10.6-21.19,22.73,0,12,8.72,22.38,21.19,22.38C198.16,108.66,205.16,106.27,210.46,99.26Z"/><path class="cls-2" d="M387.16,82.18v44.94H363.4V84.23c0-13-6.32-20-17.42-20-5,0-10.43,2.22-15.38,9.05a75.34,75.34,0,0,1,.68,8.89v44.94H307.53V84.23c0-13-6.33-20-17.6-20-4.61,0-9.74,2.73-14.53,9.22v53.66H251.65V45.27H275.4v4.95c5.13-4.78,10.6-7.52,20.17-7.52a33.83,33.83,0,0,1,26.14,11.62c8.72-8,16.92-11.62,29.74-11.62C371.44,42.7,387.16,58.25,387.16,82.18Z"/><path class="cls-2" d="M488.34,86.28c0,23.75-18.12,42.54-40.67,42.54a41.9,41.9,0,0,1-23.24-6.48v30.75l-23.75,13.5V45.27h23.75v4.78a41.82,41.82,0,0,1,23.24-6.49C470.22,43.56,488.34,62.19,488.34,86.28Zm-23.41,0c0-12.13-8.89-22.73-21.19-22.73-7,0-14,2.4-19.31,9.57V99.26c5.29,7,12.3,9.4,19.31,9.4C456,108.66,464.93,98.24,464.93,86.28Z"/><rect class="cls-3" width="506.84" height="172.65"/></svg>